<svg xmlns="http://www.w3.org/2000/svg" viewBox="0 0 128 128" fill="none">
  <defs>
    <radialGradient id="bg" cx="50%" cy="45%" r="60%">
      <stop offset="0%" stop-color="#17232b"/>
      <stop offset="100%" stop-color="#070b10"/>
    </radialGradient>
    <filter id="neon" x="-25%" y="-25%" width="150%" height="150%">
      <feGaussianBlur stdDeviation="2.2" result="blur"/>
      <feFlood flood-color="#63ffbd" flood-opacity="0.95"/>
      <feComposite in2="blur" operator="in" result="glow"/>
      <feMerge>
        <feMergeNode in="glow"/>
        <feMergeNode in="SourceGraphic"/>
      </feMerge>
    </filter>
    <filter id="ringGlow" x="-30%" y="-30%" width="160%" height="160%">
      <feGaussianBlur stdDeviation="3" result="b"/>
      <feFlood flood-color="#44ffae" flood-opacity="0.95"/>
      <feComposite in2="b" operator="in" result="g"/>
      <feMerge>
        <feMergeNode in="g"/>
        <feMergeNode in="SourceGraphic"/>
      </feMerge>
    </filter>
  </defs>

  <circle cx="64" cy="64" r="62" fill="url(#bg)"/>

  <g opacity="0.2" stroke="#2fdc9a" stroke-width="1" fill="none">
    <path d="M12 36h16l8-8h14"/>
    <path d="M14 52h12l10 10h10"/>
    <path d="M14 78h16l8 8h12"/>
    <path d="M114 34h-18l-8-8H76"/>
    <path d="M112 52H98l-8 10H80"/>
    <path d="M114 80H96l-10 8H74"/>
    <circle cx="28" cy="36" r="2"/>
    <circle cx="26" cy="52" r="2"/>
    <circle cx="30" cy="78" r="2"/>
    <circle cx="100" cy="34" r="2"/>
    <circle cx="98" cy="52" r="2"/>
    <circle cx="96" cy="80" r="2"/>
  </g>

  <circle cx="64" cy="64" r="60" stroke="#59ffb9" stroke-width="4" filter="url(#ringGlow)"/>
  <circle cx="64" cy="64" r="54" stroke="#3bbf8f" stroke-opacity="0.55" stroke-width="2"/>

  <g stroke="#63ffbd" stroke-linecap="round" stroke-linejoin="round" fill="none" filter="url(#neon)">
    <path d="M30 88V42l22 30 22-30v46" stroke-width="7"/>
    <polyline points="74,66 82,66 88,48 94,66 100,90 107,58 114,66 122,66" stroke-width="7"/>
  </g>

  <g stroke="#e9fff7" stroke-linecap="round" stroke-linejoin="round" fill="none" opacity="0.9">
    <path d="M30 88V42l22 30 22-30v46" stroke-width="2.6"/>
    <polyline points="74,66 82,66 88,48 94,66 100,90 107,58 114,66 122,66" stroke-width="2.6"/>
  </g>

  <g fill="#b4ffe3" filter="url(#neon)">
    <circle cx="30" cy="66" r="2.2"/>
    <circle cx="52" cy="72" r="2.2"/>
    <circle cx="74" cy="66" r="2.2"/>
    <circle cx="88" cy="48" r="1.9"/>
    <circle cx="107" cy="58" r="1.9"/>
  </g>
</svg>
